<?xml version="1.0" encoding="utf-8"?>
<!-- Generator: Adobe Illustrator 23.0.1, SVG Export Plug-In . SVG Version: 6.00 Build 0)  -->
<svg version="1.1" id="Слой_1" xmlns="http://www.w3.org/2000/svg" xmlns:xlink="http://www.w3.org/1999/xlink" x="0px" y="0px"
	 viewBox="0 0 17 12" style="enable-background:new 0 0 17 12;" xml:space="preserve">
<style type="text/css">
	.st0{fill:#0E0E0E;}
</style>
<path class="st0" d="M5.8,11.8c-0.1,0-0.1,0-0.2,0c-0.1,0-0.1-0.1-0.2-0.1L0.1,6.4C0.1,6.3,0,6.3,0,6.2C0,6.1,0,6.1,0,6
	c0-0.1,0-0.1,0-0.2c0-0.1,0.1-0.1,0.1-0.2c0.1-0.1,0.1-0.1,0.2-0.1c0.1,0,0.1,0,0.2,0c0.1,0,0.1,0,0.2,0c0.1,0,0.1,0.1,0.2,0.1
	l4.9,4.8L15.9,0.4c0.1-0.1,0.2-0.2,0.4-0.2s0.3,0.1,0.4,0.2c0.1,0.1,0.2,0.2,0.2,0.4S16.8,1,16.7,1.1L6.2,11.6
	C6.1,11.7,6,11.7,6,11.8C5.9,11.8,5.8,11.8,5.8,11.8z"/>
</svg>
