<?xml version="1.0" encoding="utf-8"?>
<!-- Generator: Adobe Illustrator 23.0.1, SVG Export Plug-In . SVG Version: 6.00 Build 0)  -->
<svg version="1.1" id="Слой_1" xmlns="http://www.w3.org/2000/svg" xmlns:xlink="http://www.w3.org/1999/xlink" x="0px" y="0px"
	 viewBox="0 0 18 16" style="enable-background:new 0 0 18 16;" xml:space="preserve">
<style type="text/css">
	.st0{fill:#DAC5A7;}
</style>
<path class="st0" d="M17.6,8.4l-6.8,6.7c-0.1,0.1-0.1,0.1-0.2,0.1c-0.1,0-0.1,0-0.2,0s-0.1,0-0.2,0c-0.1,0-0.1-0.1-0.2-0.1
	c0.1,0,0-0.1,0-0.1c0-0.1,0-0.1,0-0.2c0-0.1,0-0.1,0-0.2c0-0.1,0.1-0.1,0.1-0.2l5.8-5.8H0.8c-0.1,0-0.3-0.1-0.4-0.2
	C0.2,8.3,0.2,8.1,0.2,8c0-0.1,0.1-0.3,0.2-0.4s0.2-0.2,0.4-0.2h15.1l-5.8-5.8C10,1.5,9.9,1.4,9.9,1.2c0-0.1,0.1-0.3,0.2-0.4
	c0.1-0.1,0.2-0.2,0.4-0.2s0.3,0.1,0.4,0.2l6.8,6.7c0.1,0.1,0.1,0.1,0.1,0.2s0,0.1,0,0.2s0,0.1,0,0.2C17.7,8.3,17.7,8.3,17.6,8.4z"/>
</svg>
